<svg xmlns="http://www.w3.org/2000/svg" viewBox="0 0 438.67 438.67"><defs><style>.cls-1{fill:#cce9fb;}.cls-2{fill:#93d0f3;}.cls-3,.cls-4,.cls-5{fill:#fff;}.cls-3{stroke:#1f3c77;stroke-width:8px;}.cls-3,.cls-5{stroke-miterlimit:10;}.cls-5{stroke:#93d0f3;stroke-width:5px;}.cls-6{fill:#1f3c77;}</style></defs><title>Varlık 1</title><g id="katman_2" data-name="katman 2"><g id="katman_1-2" data-name="katman 1"><circle class="cls-1" cx="219.33" cy="219.33" r="219.33"/><rect class="cls-2" x="79.79" y="126.51" width="279.08" height="196.73" rx="21.58" ry="21.58"/><circle class="cls-3" cx="168.16" cy="198.21" r="30.12"/><path class="cls-4" d="M163.11,259.93c0,25.36,25.17,45.93,56.22,45.93s56.22-20.57,56.22-45.93Z"/><path class="cls-2" d="M258.54,126.51c0-17.87-17.55-32.35-39.21-32.35s-39.2,14.48-39.2,32.35"/><line class="cls-5" x1="219.33" y1="94.16" x2="219.33" y2="69.24"/><circle class="cls-6" cx="219.33" cy="66.5" r="7.19"/><rect class="cls-6" x="142.83" y="322.73" width="153" height="21.51"/><path class="cls-6" d="M63.63,212.88H86.29a0,0,0,0,1,0,0v34a0,0,0,0,1,0,0H63.63a11.34,11.34,0,0,1-11.34-11.34V224.22A11.34,11.34,0,0,1,63.63,212.88Z"/><path class="cls-6" d="M363.71,212.88h22.66a0,0,0,0,1,0,0v34a0,0,0,0,1,0,0H363.71a11.34,11.34,0,0,1-11.34-11.34V224.22A11.34,11.34,0,0,1,363.71,212.88Z" transform="translate(738.75 459.76) rotate(-180)"/><circle class="cls-3" cx="270.51" cy="198.21" r="30.12"/></g></g></svg>